<?xml version="1.0" encoding="UTF-8" standalone="no"?>
<!-- Created with Inkscape (http://www.inkscape.org/) -->

<svg
   xmlns:dc="http://purl.org/dc/elements/1.1/"
   xmlns:cc="http://creativecommons.org/ns#"
   xmlns:rdf="http://www.w3.org/1999/02/22-rdf-syntax-ns#"
   xmlns:svg="http://www.w3.org/2000/svg"
   xmlns="http://www.w3.org/2000/svg"
   xmlns:sodipodi="http://sodipodi.sourceforge.net/DTD/sodipodi-0.dtd"
   xmlns:inkscape="http://www.inkscape.org/namespaces/inkscape"
   inkscape:version="0.91 r13725"
   version="1.1"
   id="svg5087"
   viewBox="0 0 200 200"
   height="200"
   width="200"
   sodipodi:docname="finger.svg">
  <sodipodi:namedview
     inkscape:window-maximized="1"
     inkscape:window-y="0"
     inkscape:window-x="0"
     inkscape:window-height="1004"
     inkscape:window-width="1920"
     units="px"
     showgrid="false"
     inkscape:current-layer="layer1"
     inkscape:document-units="px"
     inkscape:cy="116.30677"
     inkscape:cx="-220.38568"
     inkscape:zoom="1"
     inkscape:pageshadow="2"
     inkscape:pageopacity="0.0"
     borderopacity="1.0"
     bordercolor="#666666"
     pagecolor="#ffffff"
     id="base" />
  <defs
     id="defs5089" />
  <metadata
     id="metadata5092">
    <rdf:RDF>
      <cc:Work
         rdf:about="">
        <dc:format>image/svg+xml</dc:format>
        <dc:type
           rdf:resource="http://purl.org/dc/dcmitype/StillImage" />
        <dc:title></dc:title>
      </cc:Work>
    </rdf:RDF>
  </metadata>
  <g
     transform="translate(0,-852.36216)"
     id="layer1"
     inkscape:groupmode="layer"
     inkscape:label="Layer 1">
    <circle
       style="opacity:1;fill:#5e3fb5;fill-opacity:1;stroke:none;stroke-width:2;stroke-miterlimit:4;stroke-dasharray:none;stroke-opacity:1"
       id="circle6504"
       cx="99.999992"
       cy="952.36218"
       r="100" />
    <path
       style="opacity:0.2;fill:#000000;fill-opacity:1;stroke:none;stroke-width:2;stroke-miterlimit:4;stroke-dasharray:none;stroke-opacity:1"
       d="M 100.9375 30.810547 C 99.788797 30.816214 98.763502 31.407688 97.324219 32.703125 C 95.723259 34.144225 95.716797 34.23485 95.716797 56.28125 L 95.716797 78.414062 L 91.240234 74.115234 C 85.732984 68.826934 84.523813 68.387394 80.757812 70.308594 L 77.859375 71.787109 L 77.859375 81.572266 L 77.859375 91.357422 L 73.751953 87.353516 C 71.493023 85.151616 68.944038 82.992188 68.085938 82.554688 C 65.378377 81.174088 62.326274 81.614156 59.996094 83.722656 L 57.826172 85.6875 L 57.419922 97.830078 C 57.196052 104.50858 57.330773 116.08062 57.720703 123.54492 C 58.501993 138.50052 59.664922 143.16548 64.357422 150.1582 C 65.503298 151.86614 87.704015 174.49757 112.13477 199.13477 A 100 100 0 0 0 196.94141 124.03711 L 159.18945 86.234375 C 129.58338 56.588975 104.41191 31.917103 103.25391 31.408203 C 102.35916 31.015053 101.62672 30.807147 100.9375 30.810547 z "
       id="path4678"
       transform="translate(0,852.36216)" />
    <g
       transform="translate(-1e-5,-3.9e-5)"
       id="g6506"
       style="fill:#ffffff;fill-opacity:1">
      <g
         style="fill:#ffffff;fill-opacity:1"
         id="g6508"
         transform="translate(0.08060668,0.14673857)">
        <path
           style="opacity:1;fill:#ffffff;fill-opacity:1;stroke:none;stroke-width:2;stroke-miterlimit:4;stroke-dasharray:none;stroke-opacity:1"
           d="m 88.559543,168.00713 c -6.683386,-1.79738 -12.215797,-5.22456 -18.302586,-11.33796 -6.229863,-6.25709 -9.448253,-11.75858 -11.450174,-19.57284 -1.492915,-5.82742 -1.924541,-48.565847 -0.522272,-51.714052 2.041678,-4.583731 8.809375,-5.158077 11.907822,-1.010568 1.349816,1.806832 1.539869,3.265971 1.883961,14.464114 0.450147,14.649596 0.289712,14.335406 8.545873,16.735726 7.500916,2.18075 15.290439,5.70216 22.991363,10.39372 7.28451,4.43786 10.08913,5.16725 10.43997,2.71506 0.30384,-2.12367 -4.04677,-5.5105 -14.145619,-11.01197 -4.517857,-2.46115 -8.338182,-4.57415 -8.489612,-4.69554 -0.15143,-0.12139 0.283042,-1.07289 0.965494,-2.11445 0.682451,-1.04155 1.806699,-3.54265 2.498328,-5.558 l 1.257507,-3.66427 4.355602,0.0674 c 2.39559,0.0371 4.81488,0.4486 5.37622,0.91446 0.56133,0.46587 1.37619,2.25921 1.81081,3.98521 1.00516,3.99187 4.60488,7.83266 8.40934,8.9725 2.51546,0.75365 3.54212,0.6978 6.96535,-0.37894 3.68781,-1.15996 4.11815,-1.16954 5.28056,-0.11758 2.18879,1.98083 6.38499,3.34267 10.29746,3.34194 l 3.77294,-6.9e-4 -0.22833,7.32212 c -0.27083,8.68471 -1.55676,14.88579 -4.14891,20.00708 -5.45027,10.76804 -15.96029,19.39618 -27.1894,22.321 -5.17702,1.34844 -17.158535,1.3143 -22.281697,-0.0635 l 0,1e-5 z"
           id="path6510"
           inkscape:connector-curvature="0"
           transform="translate(0,852.36216)" />
        <path
           style="opacity:1;fill:#ffffff;fill-opacity:1;stroke:none;stroke-width:2;stroke-miterlimit:4;stroke-dasharray:none;stroke-opacity:1"
           d="m 81.668797,109.17072 c -3.393973,-1.37571 -3.533514,-2.11801 -3.771228,-20.061338 L 77.67297,72.156064 79.793548,70.64608 c 4.431657,-3.155618 8.502238,-1.170967 9.450635,4.60775 0.318197,1.938817 0.597701,9.49588 0.621119,16.79347 0.04132,12.87654 -0.0049,13.31157 -1.564563,14.73217 -1.470723,1.33957 -4.409492,3.13476 -4.953042,3.02564 -0.124042,-0.0249 -0.879546,-0.31038 -1.6789,-0.63439 z"
           id="path6512"
           inkscape:connector-curvature="0"
           transform="translate(0,852.36216)" />
        <path
           style="opacity:1;fill:#ffffff;fill-opacity:1;stroke:none;stroke-width:2;stroke-miterlimit:4;stroke-dasharray:none;stroke-opacity:1"
           d="m 98.300739,95.758619 -2.678572,-0.280188 0,-30.703635 0,-30.703635 1.753247,-1.753247 c 2.220343,-2.220343 4.754716,-2.230696 7.314066,-0.02988 l 2.00412,1.723369 0.20039,31.133774 0.20039,31.133774 -3.05754,-0.120073 c -1.68164,-0.06604 -4.262887,-0.246158 -5.736101,-0.400261 z"
           id="path6514"
           inkscape:connector-curvature="0"
           transform="translate(0,852.36216)" />
        <path
           style="opacity:1;fill:#ffffff;fill-opacity:1;stroke:none;stroke-width:2;stroke-miterlimit:4;stroke-dasharray:none;stroke-opacity:1"
           d="m 114.85294,108.47676 -2.08792,-2.08792 0,-15.46703 0,-15.467033 2.08792,-2.087912 c 2.55376,-2.55376 5.01267,-2.670131 7.69368,-0.364111 l 2.00412,1.7238 0,16.195044 0,16.195042 -2.00412,1.72402 c -2.68093,2.30623 -5.13986,2.18992 -7.69368,-0.3639 z"
           id="path6516"
           inkscape:connector-curvature="0"
           transform="translate(0,852.36216)" />
        <path
           style="opacity:1;fill:#ffffff;fill-opacity:1;stroke:none;stroke-width:2;stroke-miterlimit:4;stroke-dasharray:none;stroke-opacity:1"
           d="m 132.54152,110.70415 c -1.89009,-1.97283 -1.91935,-2.15102 -1.91935,-11.689383 0,-8.578711 0.16202,-9.891994 1.41727,-11.487788 1.88111,-2.391443 4.49664,-2.979422 7.14997,-1.607332 2.80114,1.448524 3.20128,3.216609 3.20878,14.178373 l 0.006,9.17621 -2.14115,1.7131 c -2.8517,2.28159 -5.35246,2.18988 -7.7218,-0.28318 l -10e-6,0 z"
           id="path6518"
           inkscape:connector-curvature="0"
           transform="translate(0,852.36216)" />
      </g>
    </g>
    <g
       id="g4758"
       transform="matrix(0.82923339,0,0,0.82923339,-86.49743,205.14203)">
      <path
         style="fill:#2b2b2b"
         d="m 210.90507,989.87016 c -19.68933,-5.1946 -35.48399,-20.7106 -41.65212,-40.9174 -1.59741,-5.2331 -1.83255,-9.7706 -1.83969,-35.49996 -0.008,-27.70972 0.11318,-29.70606 1.99181,-32.89547 4.00384,-6.79746 9.80425,-8.81971 19.97794,-6.9651 1.63234,0.29757 2.07721,-0.33833 2.54612,-3.63943 1.19212,-8.3924 7.92494,-13.23003 16.60205,-11.92882 l 4.37389,0.65591 0.004,-18.86355 c 0.003,-16.94507 0.20226,-19.18914 1.95578,-22.06499 5.37267,-8.81148 18.99431,-8.23764 23.37052,0.98452 1.38379,2.91604 1.67,6.88413 1.67,23.1525 l 0,19.63332 4.79035,-0.63547 c 9.08947,-1.20576 16.19744,4.38975 16.20591,12.75756 0.005,4.523 0.70886,5.01923 5.17726,3.64784 2.91734,-0.89536 4.27158,-0.73552 8.09401,0.95532 8.06062,3.5656 8.23434,4.34132 8.22045,36.70586 -0.0104,24.23196 -0.2574,28.80036 -1.83541,33.94776 -6.27398,20.465 -22.15137,35.9345 -42.11267,41.0306 -7.39799,1.8887 -20.25761,1.8602 -27.5399,-0.061 z m 26.86858,-5.87 c 17.11193,-4.5545 31.17653,-18.0086 36.23481,-34.6619 1.36022,-4.4781 2.09434,-9.9594 2.21546,-16.54147 l 0.18115,-9.84399 -3.5,0.24372 c -5.66731,0.39463 -9.7429,-0.65651 -12.92403,-3.33325 -2.90115,-2.44115 -3.07096,-2.46442 -6.19515,-0.84884 -8.36288,4.32461 -18.1357,-1.35342 -19.826,-11.51895 -0.51162,-3.07692 -1.01388,-3.54901 -4.56485,-4.29059 -2.19448,-0.4583 -5.29297,-0.70251 -6.88553,-0.54268 -2.5452,0.25543 -3.04075,0.8654 -4.09556,5.0412 -0.66001,2.61284 -1.94451,5.57327 -2.85445,6.57874 -0.90994,1.00547 -1.65443,2.12518 -1.65443,2.48823 0,0.36305 3.7125,2.5258 8.25,4.80611 11.84744,5.95389 19.75,11.53369 19.75,13.94497 0,3.61 -2.82555,3.2009 -9.7678,-1.41429 -8.8628,-5.89198 -19.96444,-11.19203 -28.7322,-13.71708 -12.67153,-3.6493 -11.5,-1.76317 -11.5,-18.51472 0,-16.07048 -1.03888,-20.20799 -5.59525,-22.28401 -3.30841,-1.50742 -4.9274,-1.43677 -8.41601,0.36726 -4.76953,2.46642 -5.23443,5.98828 -4.75797,36.04374 0.3837,24.2038 0.64699,27.6202 2.58348,33.5226 5.44401,16.5931 19.27096,29.8622 35.8735,34.4262 6.47253,1.7792 19.5879,1.8038 26.18083,0.049 z m 35.82566,-68.96078 c 2.7973,-2.40613 2.80576,-2.4513 2.80576,-14.97222 0,-11.59641 -0.16816,-12.72697 -2.19444,-14.75325 -1.31879,-1.31878 -3.43589,-2.19444 -5.30556,-2.19444 -1.86967,0 -3.98677,0.87566 -5.30556,2.19444 -2.02628,2.02628 -2.19444,3.15684 -2.19444,14.75325 0,12.52092 0.008,12.56609 2.80576,14.97222 1.54317,1.32738 3.65558,2.41342 4.69424,2.41342 1.03866,0 3.15107,-1.08604 4.69424,-2.41342 z m -21.00869,-2.76089 c 2.26589,-2.1287 2.31445,-2.58366 2.31445,-21.68555 0,-18.65634 -0.0953,-19.61265 -2.17431,-21.82569 -2.88237,-3.06814 -7.22152,-3.00952 -10.37114,0.14009 -2.43464,2.43464 -2.45455,2.60943 -2.45455,21.54546 0,18.93603 0.0199,19.11082 2.45455,21.54545 3.05196,3.05197 7.16083,3.16451 10.231,0.28024 z m -42.60863,-1.74877 2.92308,-2.92307 0,-18.52987 c 0,-19.74022 -0.55149,-22.64296 -4.65733,-24.51371 -3.42658,-1.56125 -4.70206,-1.40201 -7.70781,0.96231 l -2.63486,2.07258 0,20.77243 c 0,18.53584 0.18842,20.93658 1.75,22.29693 4.03695,3.51677 6.70815,3.48117 10.32692,-0.1376 z m 23.6851,-50.67678 c 0.2563,-36.28965 0.2165,-37.15773 -1.82258,-39.75 -2.7264,-3.46606 -7.68495,-3.61439 -10.77762,-0.32239 -2.17789,2.31826 -2.18575,2.47838 -1.92432,39.25 l 0.2625,36.92225 4.5,0.62024 c 2.475,0.34113 5.625,0.56613 7,0.5 l 2.5,-0.12024 0.26202,-37.09986 z"
         id="path4760"
         inkscape:connector-curvature="0" />
    </g>
  </g>
</svg>
